<svg xmlns="http://www.w3.org/2000/svg" width="1320" height="1170" viewBox="0 0 1320 1170" font-family="Arial, Helvetica, sans-serif" font-size="12" xmlns:c2pa="http://c2pa.org/manifest"><metadata><c2pa:manifest>AAAWgmp1bWIAAAAeanVtZGMycGEAEQAQgAAAqgA4m3EDYzJwYQAAABZcanVtYgAAAEdqdW1kYzJtYQARABCAAACqADibcQN1cm46YzJwYTozOGE3NTk4MS0yMDM3LTQ0MDQtOTg5YS1iZjAzZWE4MWZmYzYAAAADl2p1bWIAAAApanVtZGMyYXMAEQAQgAAAqgA4m3EDYzJwYS5hc3NlcnRpb25zAAAAALxqdW1iAAAARGp1bWRjYm9yABEAEIAAAKoAOJtxE2MycGEuaW5ncmVkaWVudC52MwAAAAAYYzJzaJSGrdxIRRCujE5QNxVcv5kAAABwY2JvcqNpZGM6Zm9ybWF0bWltYWdlL3N2Zyt4bWxqaW5zdGFuY2VJRHgseG1wOmlpZDo2MDI0MGEyNy02YjQ5LTQwOWItOThlOS0wMzFlZDY0N2E0OGJscmVsYXRpb25zaGlwaHBhcmVudE9mAAAB4mp1bWIAAABBanVtZGNib3IAEQAQgAAAqgA4m3ETYzJwYS5hY3Rpb25zLnYyAAAAABhjMnNobpaWzdZX14bAI48onDkEXQAAAZljYm9yomdhY3Rpb25zgqJmYWN0aW9ua2MycGEub3BlbmVkanBhcmFtZXRlcnOha2luZ3JlZGllbnRzgaJjdXJseC1zZWxmI2p1bWJmPWMycGEuYXNzZXJ0aW9ucy9jMnBhLmluZ3JlZGllbnQudjNkaGFzaFgg0a/IIL3wpQmLag1fimkGe68BWCcFPIZN29dfrnAvfDWkZmFjdGlvbngdY29tLmFudGhyb3BpYy5jbGF1ZGUucHJvdmlkZWRqcGFyYW1ldGVyc6F4H2NvbS5hbnRocm9waWMub3JpZ2luLWNvbmZpZGVuY2VndW5rbm93bmtkZXNjcmlwdGlvbnhmQ2xhdWRlIHByb3ZpZGVkIHRoaXMgZmlsZSBhdCB0aGUgcmVxdWVzdCBvZiBhIHVzZXIgYW5kIG1heSBoYXZlIGNyZWF0ZWQgb3IgbW9kaWZpZWQgdGhlIGZpbGUgY29udGVudHMubXNvZnR3YXJlQWdlbnShZG5hbWVmQ2xhdWRlcmFsbEFjdGlvbnNJbmNsdWRlZPUAAADIanVtYgAAAEBqdW1kY2JvcgARABCAAACqADibcRNjMnBhLmhhc2guZGF0YQAAAAAYYzJzaMjH23lGG9hg1nct1GdbFQ8AAACAY2JvcqVjYWxnZnNoYTI1NmNwYWRNAAAAAAAAAAAAAAAAAGRoYXNoWCB/WzlxQQZGucN899e5uD1Sn9wIKIy1u6cBP+cHhhdA7mRuYW1lbmp1bWJmIG1hbmlmZXN0amV4Y2x1c2lvbnOBomVzdGFydBjUZmxlbmd0aBkeBAAAAj5qdW1iAAAAJ2p1bWRjMmNsABEAEIAAAKoAOJtxA2MycGEuY2xhaW0udjIAAAACD2Nib3KlY2FsZ2ZzaGEyNTZpc2lnbmF0dXJleE1zZWxmI2p1bWJmPS9jMnBhL3VybjpjMnBhOjM4YTc1OTgxLTIwMzctNDQwNC05ODlhLWJmMDNlYTgxZmZjNi9jMnBhLnNpZ25hdHVyZWppbnN0YW5jZUlEeCx4bXA6aWlkOjkxYWNiZmUwLTNmZGEtNDc3MS1hMDQ5LWI4YjM4NjcxZjdhM3JjcmVhdGVkX2Fzc2VydGlvbnODomN1cmx4LXNlbGYjanVtYmY9YzJwYS5hc3NlcnRpb25zL2MycGEuaW5ncmVkaWVudC52M2RoYXNoWCDRr8ggvfClCYtqDV+KaQZ7rwFYJwU8hk3b11+ucC98NaJjdXJseCpzZWxmI2p1bWJmPWMycGEuYXNzZXJ0aW9ucy9jMnBhLmFjdGlvbnMudjJkaGFzaFggf42wodKhymcm9xYscT+ZYp6TZ2jC8CvnmYso0+efGqSiY3VybHgpc2VsZiNqdW1iZj1jMnBhLmFzc2VydGlvbnMvYzJwYS5oYXNoLmRhdGFkaGFzaFgghr5rU2mFuwU+FJtEOGYTU/0KcNzmyJGL+t6wUA5HirV0Y2xhaW1fZ2VuZXJhdG9yX2luZm+jZG5hbWVvQW50aHJvcGljIEZpbGVzZ3ZlcnNpb25lMS4wLjBrc3BlY1ZlcnNpb25lMi40LjAAABA4anVtYgAAAChqdW1kYzJjcwARABCAAACqADibcQNjMnBhLnNpZ25hdHVyZQAAABAIY2JvctKEWQISogEmGCFZAgowggIGMIIBjaADAgECAhRA5aAK7sI50L64g/oGQgU9Z1UTADAKBggqhkjOPQQDAzBJMRcwFQYDVQQKEw5BbnRocm9waWMsIFBCQzEuMCwGA1UEAxMlQW50aHJvcGljIENvbnRlbnQgQ3JlZGVudGlhbHMgUm9vdCBDQTAeFw0yNjA4MDcxODQzNTZaFw0yODA4MDYxOTQzNTZaMEQxFzAVBgNVBAoTDkFudGhyb3BpYywgUEJDMSkwJwYDVQQDEyBBbnRocm9waWMgQ2xhdWRlIENvbnRlbnQgU2lnbmluZzBZMBMGByqGSM49AgEGCCqGSM49AwEHA0IABJh6CmvLUBgFFNU0vUKlOVtE6djd17L5SuwX0LemFisBM3dkd/3cyjxFA3Qo5S46fX0/ihY0VZ7mfb9KF703t5OjWDBWMA4GA1UdDwEB/wQEAwIHgDAVBgNVHSUEDjAMBgorBgEEAYPoXgIBMAwGA1UdEwEB/wQCMAAwHwYDVR0jBBgwFoAUzlHiBIFOZFsj+OPEz5o+nMHXXMIwCgYIKoZIzj0EAwMDZwAwZAIwMXMdFJ4BetLLVY7ORuE9noqbbAZOZn/aArXyTwFAZfKrPzxF2vPoJNf1+UCdg1XGAjBwX1zd9WGqYkqmL5SFqw1QySjr1zJfpJM9+1rdDwSPLMOPOjKuiXjoU/pUUeG9RwmhY3BhZFkNngAAAAAAAAAAAAAAAAAAAAAAAAAAAAAAAAAAAAAAAAAAAAAAAAAAAAAAAAAAAAAAAAAAAAAAAAAAAAAAAAAAAAAAAAAAAAAAAAAAAAAAAAAAAAAAAAAAAAAAAAAAAAAAAAAAAAAAAAAAAAAAAAAAAAAAAAAAAAAAAAAAAAAAAAAAAAAAAAAAAAAAAAAAAAAAAAAAAAAAAAAAAAAAAAAAAAAAAAAAAAAAAAAAAAAAAAAAAAAAAAAAAAAAAAAAAAAAAAAAAAAAAAAAAAAAAAAAAAAAAAAAAAAAAAAAAAAAAAAAAAAAAAAAAAAAAAAAAAAAAAAAAAAAAAAAAAAAAAAAAAAAAAAAAAAAAAAAAAAAAAAAAAAAAAAAAAAAAAAAAAAAAAAAAAAAAAAAAAAAAAAAAAAAAAAAAAAAAAAAAAAAAAAAAAAAAAAAAAAAAAAAAAAAAAAAAAAAAAAAAAAAAAAAAAAAAAAAAAAAAAAAAAAAAAAAAAAAAAAAAAAAAAAAAAAAAAAAAAAAAAAAAAAAAAAAAAAAAAAAAAAAAAAAAAAAAAAAAAAAAAAAAAAAAAAAAAAAAAAAAAAAAAAAAAAAAAAAAAAAAAAAAAAAAAAAAAAAAAAAAAAAAAAAAAAAAAAAAAAAAAAAAAAAAAAAAAAAAAAAAAAAAAAAAAAAAAAAAAAAAAAAAAAAAAAAAAAAAAAAAAAAAAAAAAAAAAAAAAAAAAAAAAAAAAAAAAAAAAAAAAAAAAAAAAAAAAAAAAAAAAAAAAAAAAAAAAAAAAAAAAAAAAAAAAAAAAAAAAAAAAAAAAAAAAAAAAAAAAAAAAAAAAAAAAAAAAAAAAAAAAAAAAAAAAAAAAAAAAAAAAAAAAAAAAAAAAAAAAAAAAAAAAAAAAAAAAAAAAAAAAAAAAAAAAAAAAAAAAAAAAAAAAAAAAAAAAAAAAAAAAAAAAAAAAAAAAAAAAAAAAAAAAAAAAAAAAAAAAAAAAAAAAAAAAAAAAAAAAAAAAAAAAAAAAAAAAAAAAAAAAAAAAAAAAAAAAAAAAAAAAAAAAAAAAAAAAAAAAAAAAAAAAAAAAAAAAAAAAAAAAAAAAAAAAAAAAAAAAAAAAAAAAAAAAAAAAAAAAAAAAAAAAAAAAAAAAAAAAAAAAAAAAAAAAAAAAAAAAAAAAAAAAAAAAAAAAAAAAAAAAAAAAAAAAAAAAAAAAAAAAAAAAAAAAAAAAAAAAAAAAAAAAAAAAAAAAAAAAAAAAAAAAAAAAAAAAAAAAAAAAAAAAAAAAAAAAAAAAAAAAAAAAAAAAAAAAAAAAAAAAAAAAAAAAAAAAAAAAAAAAAAAAAAAAAAAAAAAAAAAAAAAAAAAAAAAAAAAAAAAAAAAAAAAAAAAAAAAAAAAAAAAAAAAAAAAAAAAAAAAAAAAAAAAAAAAAAAAAAAAAAAAAAAAAAAAAAAAAAAAAAAAAAAAAAAAAAAAAAAAAAAAAAAAAAAAAAAAAAAAAAAAAAAAAAAAAAAAAAAAAAAAAAAAAAAAAAAAAAAAAAAAAAAAAAAAAAAAAAAAAAAAAAAAAAAAAAAAAAAAAAAAAAAAAAAAAAAAAAAAAAAAAAAAAAAAAAAAAAAAAAAAAAAAAAAAAAAAAAAAAAAAAAAAAAAAAAAAAAAAAAAAAAAAAAAAAAAAAAAAAAAAAAAAAAAAAAAAAAAAAAAAAAAAAAAAAAAAAAAAAAAAAAAAAAAAAAAAAAAAAAAAAAAAAAAAAAAAAAAAAAAAAAAAAAAAAAAAAAAAAAAAAAAAAAAAAAAAAAAAAAAAAAAAAAAAAAAAAAAAAAAAAAAAAAAAAAAAAAAAAAAAAAAAAAAAAAAAAAAAAAAAAAAAAAAAAAAAAAAAAAAAAAAAAAAAAAAAAAAAAAAAAAAAAAAAAAAAAAAAAAAAAAAAAAAAAAAAAAAAAAAAAAAAAAAAAAAAAAAAAAAAAAAAAAAAAAAAAAAAAAAAAAAAAAAAAAAAAAAAAAAAAAAAAAAAAAAAAAAAAAAAAAAAAAAAAAAAAAAAAAAAAAAAAAAAAAAAAAAAAAAAAAAAAAAAAAAAAAAAAAAAAAAAAAAAAAAAAAAAAAAAAAAAAAAAAAAAAAAAAAAAAAAAAAAAAAAAAAAAAAAAAAAAAAAAAAAAAAAAAAAAAAAAAAAAAAAAAAAAAAAAAAAAAAAAAAAAAAAAAAAAAAAAAAAAAAAAAAAAAAAAAAAAAAAAAAAAAAAAAAAAAAAAAAAAAAAAAAAAAAAAAAAAAAAAAAAAAAAAAAAAAAAAAAAAAAAAAAAAAAAAAAAAAAAAAAAAAAAAAAAAAAAAAAAAAAAAAAAAAAAAAAAAAAAAAAAAAAAAAAAAAAAAAAAAAAAAAAAAAAAAAAAAAAAAAAAAAAAAAAAAAAAAAAAAAAAAAAAAAAAAAAAAAAAAAAAAAAAAAAAAAAAAAAAAAAAAAAAAAAAAAAAAAAAAAAAAAAAAAAAAAAAAAAAAAAAAAAAAAAAAAAAAAAAAAAAAAAAAAAAAAAAAAAAAAAAAAAAAAAAAAAAAAAAAAAAAAAAAAAAAAAAAAAAAAAAAAAAAAAAAAAAAAAAAAAAAAAAAAAAAAAAAAAAAAAAAAAAAAAAAAAAAAAAAAAAAAAAAAAAAAAAAAAAAAAAAAAAAAAAAAAAAAAAAAAAAAAAAAAAAAAAAAAAAAAAAAAAAAAAAAAAAAAAAAAAAAAAAAAAAAAAAAAAAAAAAAAAAAAAAAAAAAAAAAAAAAAAAAAAAAAAAAAAAAAAAAAAAAAAAAAAAAAAAAAAAAAAAAAAAAAAAAAAAAAAAAAAAAAAAAAAAAAAAAAAAAAAAAAAAAAAAAAAAAAAAAAAAAAAAAAAAAAAAAAAAAAAAAAAAAAAAAAAAAAAAAAAAAAAAAAAAAAAAAAAAAAAAAAAAAAAAAAAAAAAAAAAAAAAAAAAAAAAAAAAAAAAAAAAAAAAAAAAAAAAAAAAAAAAAAAAAAAAAAAAAAAAAAAAAAAAAAAAAAAAAAAAAAAAAAAAAAAAAAAAAAAAAAAAAAAAAAAAAAAAAAAAAAAAAAAAAAAAAAAAAAAAAAAAAAAAAAAAAAAAAAAAAAAAAAAAAAAAAAAAAAAAAAAAAAAAAAAAAAAAAAAAAAAAAAAAAAAAAAAAAAAAAAAAAAAAAAAAAAAAAAAAAAAAAAAAAAAAAAAAAAAAAAAAAAAAAAAAAAAAAAAAAAAAAAAAAAAAAAAAAAAAAAAAAAAAAAAAAAAAAAAAAAAAAAAAAAAAAAAAAAAAAAAAAAAAAAAAAAAAAAAAAAAAAAAAAAAAAAAAAAAAAAAAAAAAAAAAAAAAAAAAAAAAAAAAAAAAAAAAAAAAAAAAAAAAAAAAAAAAAAAAAAAAAAAAAAAAAAAAAAAAAAAAAAAAAAAAAAAAAAAAAAAAAAAAAAAAAAAAAAAAAAAAAAAAAAAAAAAAAAAAAAAAAAAAAAAAAAAAAAAAAAAAAAAAAAAAAAAAAAAAAAAAAAAAAAAAAAAAAAAAAAAAAAAAAAAAAAAAAAAAAAAAAAAAAAAAAAAAAAAAAAAAAAAAAAAAAAAAAAAAAAAAAAAAAAAAAAAAAAAAAAAAAAAAAAAAAAAAAAAAAAAAAAAAAAAAAAAAAAAAAAAAAAAAAAAAAAAAAAAAAAAAAAAAAAAAAAAAAAAAAAAAAAAAAAAAAAAAAAAAAAAAAAAAAAAAAAAAAAAAAAAAAAAAAAAAAAAAAAAAAAAAAAAAAAAAAAAAAAAAAAAAAAAAAAAAAAAAAAAAAAAAAAAAAAAAAAAAAAAAAAAAAAAAAAAAAAAAAAAAAAAAAAAAAAAAAAAAAAAAAAAAAAAAAAAAAAAAAAAAAAAAAAAAAAAAAAAAAAAAAAAAAAAAAAAAAAAAAAAAAAAAAAAAAAAAAAAAAAAAAAAAAAAAAAAAAAAAAAAAAAAAAAAAAAAAAAAAAAAAAAAAAAAAAAAAAAAAAAAAAAAAAAAAAAAAAAAAAAAAAAAAAAAAAAAAAAAAAAAAAAAAAAAAAAAAAAAAAAAAAAAAAAAAAAAAAAAAAAAAAAAAAAAAAAAAAAAAAAAAAAAAAAAAAAAAAAAAAAAAAAAAAAAAAAAAAAAAAAAAAAAAAAAAAAAAAAAAAAAAAAAAAAAAAAAAAAAAAAAAAAAAAAAAAAAAAAAAAAAAAAAAAAAAAAAAAAAAAAAAAAAAAAAAAAAAAAAAAAAAAAAAAAAAAAAAAAAAAAAAAAAAAAAAAAAAAAAAAAAAAAAAAAAAAAAAAAAAAAAAAAAAAAAAAAAAAAAAAAAAAAAAAAAAAAAAAAAAAAAAAAAAAAAAAAAAAAAAAAAAAAAAAAAAAAAAAAAAAAAAAAAAAAAAAAAAAAAAAAAAAAAAAAAAAAAAAAAAAAAAAAAAAAAAAAAAAAAAAAAAAAAAAAAAAAAAAAAAAAAAAAAAAAAAAAAAAAAAAAAAAAAAAAAAAAAAAAAAAAAAAAAAAAAAAAAAAAAAAAAAAAAAAAAAAAAAAAAAAAAAAAAAAAAAAAAAAAAAAAAAAAAAAAAAAAAAAAAAAAAAAAAAAAAAAAAAAAAAAAAAAAAAAAAAAAAAAAAAAAAAAAAAAAAAAAAAAAAAAAAAAAAAAAAAAAAAAAAAAAAAAAAAAAAAAAAAAAAAAAAAAAAAAAAAAPZYQMpW+KW1U0Pn34fePacb9vwaC01n3FtfFv+CxXjBNGWAXCZdveUKDb9sO9Qs5XTEtgGadRZUC650sUM8YJCPdvE=</c2pa:manifest></metadata>
<defs><marker id="many" markerUnits="userSpaceOnUse" markerWidth="30" markerHeight="16" refX="0" refY="0" viewBox="-24 -8 30 16" overflow="visible" orient="auto"><path d="M-12 0 L0 -7 M-12 0 L0 0 M-12 0 L0 7" stroke="#000" stroke-width="1.2" fill="none"/><circle cx="-18" cy="0" r="4" fill="#fff" stroke="#000" stroke-width="1.2"/></marker><marker id="one" markerUnits="userSpaceOnUse" markerWidth="20" markerHeight="16" refX="0" refY="0" viewBox="0 -8 20 16" overflow="visible" orient="auto"><path d="M6 -7 L6 7 M11 -7 L11 7" stroke="#000" stroke-width="1.2" fill="none"/></marker></defs>
<rect id="background" width="1320" height="1170" fill="#fff"/>
<g id="relationships">
<g id="rel_reports"><path d="M710 100 L900 100 L900 260" fill="none" stroke="#000" stroke-width="1.2" marker-start="url(#one)" marker-end="url(#many)"/><text x="780" y="92" font-size="11" fill="#000">reports</text></g>
<g id="rel_classifies"><path d="M1115 156 L1115 210 L1050 210 L1050 260" fill="none" stroke="#000" stroke-width="1.2" marker-start="url(#one)" marker-end="url(#many)"/><text x="1122" y="204" font-size="11" fill="#000">classifies</text></g>
<g id="rel_has"><path d="M595 216 L595 300" fill="none" stroke="#000" stroke-width="1.2" marker-start="url(#one)" marker-end="url(#many)"/><text x="602" y="268" font-size="11" fill="#000">has</text></g>
<g id="rel_receives"><path d="M480 120 L155 120 L155 260" fill="none" stroke="#000" stroke-width="1.2" marker-start="url(#one)" marker-end="url(#many)"/><text x="300" y="112" font-size="11" fill="#000">receives</text></g>
<g id="rel_acts_in"><path d="M480 170 L20 170 L20 810 L40 810" fill="none" stroke="#000" stroke-width="1.2" marker-start="url(#one)" marker-end="url(#many)"/><text x="26" y="600" font-size="11" fill="#000">acts_in</text></g>
<g id="rel_submits"><path d="M710 150 L800 150 L800 700 L1000 700" fill="none" stroke="#000" stroke-width="1.2" marker-start="url(#one)" marker-end="url(#many)"/><text x="806" y="420" font-size="11" fill="#000">submits</text></g>
<g id="rel_claimed_by"><path d="M1040 486 L1040 620" fill="none" stroke="#000" stroke-width="1.2" marker-start="url(#one)" marker-end="url(#many)"/><text x="1046" y="570" font-size="11" fill="#000">claimed_by</text></g>
<g id="rel_audit_trail"><path d="M860 470 L300 470 L300 780 L270 780" fill="none" stroke="#000" stroke-width="1.2" marker-start="url(#one)" marker-end="url(#many)"/><text x="310" y="462" font-size="11" fill="#000">audit_trail</text></g>
<g id="rel_has_evidence"><path d="M900 486 L900 720 L635 720 L635 760" fill="none" stroke="#000" stroke-width="1.2" marker-start="url(#one)" marker-end="url(#many)"/><text x="690" y="712" font-size="11" fill="#000">has_evidence</text></g>
<g id="rel_supported_by"><path d="M1000 770 L870 770 L870 830 L750 830" fill="none" stroke="#000" stroke-width="1.2" marker-start="url(#one)" marker-end="url(#many)"/><text x="758" y="822" font-size="11" fill="#000">supported_by</text></g>
<g id="rel_produces"><path d="M1170 806 L1170 900" fill="none" stroke="#000" stroke-width="1.2" marker-start="url(#one)" marker-end="url(#many)"/><text x="1178" y="860" font-size="11" fill="#000">produces</text></g>
<g id="rel_related_claim_events"><path d="M1020 806 L1020 1140 L155 1140 L155 926" fill="none" stroke="#000" stroke-width="1.2" marker-start="url(#one)" marker-end="url(#many)"/><text x="560" y="1132" font-size="11" fill="#000">related_claim_events</text></g>
</g>
<g id="entity_USER"><rect x="480" y="30" width="230" height="186" fill="#fff" stroke="#000" stroke-width="1.5"/>
<line x1="480" y1="56" x2="710" y2="56" stroke="#000" stroke-width="1.5"/>
<text x="595.0" y="47" text-anchor="middle" font-weight="bold" fill="#000">USER</text>
<text x="488" y="70" fill="#000">String</text><text x="556" y="70" fill="#000">userId</text>
<text x="702" y="70" text-anchor="end" fill="#000">PK</text>
<text x="488" y="90" fill="#000">String</text><text x="556" y="90" fill="#000">universityId</text>
<text x="702" y="90" text-anchor="end" fill="#000">UK</text>
<text x="488" y="110" fill="#000">String</text><text x="556" y="110" fill="#000">email</text>
<text x="702" y="110" text-anchor="end" fill="#000">UK</text>
<text x="488" y="130" fill="#000">String</text><text x="556" y="130" fill="#000">displayName</text>
<text x="488" y="150" fill="#000">String</text><text x="556" y="150" fill="#000">role</text>
<text x="488" y="170" fill="#000">String</text><text x="556" y="170" fill="#000">contactPhone</text>
<text x="488" y="190" fill="#000">Date</text><text x="556" y="190" fill="#000">createdAt</text>
<text x="488" y="210" fill="#000">Date</text><text x="556" y="210" fill="#000">updatedAt</text>
<line x1="480" y1="76" x2="710" y2="76" stroke="#000" stroke-width="1"/>
<line x1="480" y1="96" x2="710" y2="96" stroke="#000" stroke-width="1"/>
<line x1="480" y1="116" x2="710" y2="116" stroke="#000" stroke-width="1"/>
<line x1="480" y1="136" x2="710" y2="136" stroke="#000" stroke-width="1"/>
<line x1="480" y1="156" x2="710" y2="156" stroke="#000" stroke-width="1"/>
<line x1="480" y1="176" x2="710" y2="176" stroke="#000" stroke-width="1"/>
<line x1="480" y1="196" x2="710" y2="196" stroke="#000" stroke-width="1"/>
<line x1="550" y1="56" x2="550" y2="216" stroke="#000" stroke-width="1"/>
<line x1="670" y1="56" x2="670" y2="216" stroke="#000" stroke-width="1"/>
</g>
<g id="entity_CATEGORY"><rect x="1000" y="30" width="230" height="126" fill="#fff" stroke="#000" stroke-width="1.5"/>
<line x1="1000" y1="56" x2="1230" y2="56" stroke="#000" stroke-width="1.5"/>
<text x="1115.0" y="47" text-anchor="middle" font-weight="bold" fill="#000">CATEGORY</text>
<text x="1008" y="70" fill="#000">String</text><text x="1076" y="70" fill="#000">categoryId</text>
<text x="1222" y="70" text-anchor="end" fill="#000">PK</text>
<text x="1008" y="90" fill="#000">String</text><text x="1076" y="90" fill="#000">name</text>
<text x="1222" y="90" text-anchor="end" fill="#000">UK</text>
<text x="1008" y="110" fill="#000">int</text><text x="1076" y="110" fill="#000">displayOrder</text>
<text x="1008" y="130" fill="#000">boolean</text><text x="1076" y="130" fill="#000">isActive</text>
<text x="1008" y="150" fill="#000">Date</text><text x="1076" y="150" fill="#000">createdAt</text>
<line x1="1000" y1="76" x2="1230" y2="76" stroke="#000" stroke-width="1"/>
<line x1="1000" y1="96" x2="1230" y2="96" stroke="#000" stroke-width="1"/>
<line x1="1000" y1="116" x2="1230" y2="116" stroke="#000" stroke-width="1"/>
<line x1="1000" y1="136" x2="1230" y2="136" stroke="#000" stroke-width="1"/>
<line x1="1070" y1="56" x2="1070" y2="156" stroke="#000" stroke-width="1"/>
<line x1="1190" y1="56" x2="1190" y2="156" stroke="#000" stroke-width="1"/>
</g>
<g id="entity_NOTIFICATION"><rect x="40" y="260" width="230" height="226" fill="#fff" stroke="#000" stroke-width="1.5"/>
<line x1="40" y1="286" x2="270" y2="286" stroke="#000" stroke-width="1.5"/>
<text x="155.0" y="277" text-anchor="middle" font-weight="bold" fill="#000">NOTIFICATION</text>
<text x="48" y="300" fill="#000">String</text><text x="116" y="300" fill="#000">notificationId</text>
<text x="262" y="300" text-anchor="end" fill="#000">PK</text>
<text x="48" y="320" fill="#000">String</text><text x="116" y="320" fill="#000">recipientId</text>
<text x="262" y="320" text-anchor="end" fill="#000">FK</text>
<text x="48" y="340" fill="#000">String</text><text x="116" y="340" fill="#000">channel</text>
<text x="48" y="360" fill="#000">String</text><text x="116" y="360" fill="#000">subject</text>
<text x="48" y="380" fill="#000">String</text><text x="116" y="380" fill="#000">body</text>
<text x="48" y="400" fill="#000">String</text><text x="116" y="400" fill="#000">relatedItemId</text>
<text x="262" y="400" text-anchor="end" fill="#000">FK</text>
<text x="48" y="420" fill="#000">String</text><text x="116" y="420" fill="#000">relatedClaimId</text>
<text x="262" y="420" text-anchor="end" fill="#000">FK</text>
<text x="48" y="440" fill="#000">String</text><text x="116" y="440" fill="#000">status</text>
<text x="48" y="460" fill="#000">Date</text><text x="116" y="460" fill="#000">sentAt</text>
<text x="48" y="480" fill="#000">Date</text><text x="116" y="480" fill="#000">createdAt</text>
<line x1="40" y1="306" x2="270" y2="306" stroke="#000" stroke-width="1"/>
<line x1="40" y1="326" x2="270" y2="326" stroke="#000" stroke-width="1"/>
<line x1="40" y1="346" x2="270" y2="346" stroke="#000" stroke-width="1"/>
<line x1="40" y1="366" x2="270" y2="366" stroke="#000" stroke-width="1"/>
<line x1="40" y1="386" x2="270" y2="386" stroke="#000" stroke-width="1"/>
<line x1="40" y1="406" x2="270" y2="406" stroke="#000" stroke-width="1"/>
<line x1="40" y1="426" x2="270" y2="426" stroke="#000" stroke-width="1"/>
<line x1="40" y1="446" x2="270" y2="446" stroke="#000" stroke-width="1"/>
<line x1="40" y1="466" x2="270" y2="466" stroke="#000" stroke-width="1"/>
<line x1="110" y1="286" x2="110" y2="486" stroke="#000" stroke-width="1"/>
<line x1="230" y1="286" x2="230" y2="486" stroke="#000" stroke-width="1"/>
</g>
<g id="entity_SESSION"><rect x="480" y="300" width="230" height="146" fill="#fff" stroke="#000" stroke-width="1.5"/>
<line x1="480" y1="326" x2="710" y2="326" stroke="#000" stroke-width="1.5"/>
<text x="595.0" y="317" text-anchor="middle" font-weight="bold" fill="#000">SESSION</text>
<text x="488" y="340" fill="#000">String</text><text x="556" y="340" fill="#000">sessionId</text>
<text x="702" y="340" text-anchor="end" fill="#000">PK</text>
<text x="488" y="360" fill="#000">String</text><text x="556" y="360" fill="#000">userId</text>
<text x="702" y="360" text-anchor="end" fill="#000">FK</text>
<text x="488" y="380" fill="#000">Date</text><text x="556" y="380" fill="#000">issuedAt</text>
<text x="488" y="400" fill="#000">Date</text><text x="556" y="400" fill="#000">expiresAt</text>
<text x="488" y="420" fill="#000">String</text><text x="556" y="420" fill="#000">role</text>
<text x="488" y="440" fill="#000">Date</text><text x="556" y="440" fill="#000">revokedAt</text>
<line x1="480" y1="346" x2="710" y2="346" stroke="#000" stroke-width="1"/>
<line x1="480" y1="366" x2="710" y2="366" stroke="#000" stroke-width="1"/>
<line x1="480" y1="386" x2="710" y2="386" stroke="#000" stroke-width="1"/>
<line x1="480" y1="406" x2="710" y2="406" stroke="#000" stroke-width="1"/>
<line x1="480" y1="426" x2="710" y2="426" stroke="#000" stroke-width="1"/>
<line x1="550" y1="326" x2="550" y2="446" stroke="#000" stroke-width="1"/>
<line x1="670" y1="326" x2="670" y2="446" stroke="#000" stroke-width="1"/>
</g>
<g id="entity_ITEM"><rect x="860" y="260" width="230" height="226" fill="#fff" stroke="#000" stroke-width="1.5"/>
<line x1="860" y1="286" x2="1090" y2="286" stroke="#000" stroke-width="1.5"/>
<text x="975.0" y="277" text-anchor="middle" font-weight="bold" fill="#000">ITEM</text>
<text x="868" y="300" fill="#000">String</text><text x="936" y="300" fill="#000">itemId</text>
<text x="1082" y="300" text-anchor="end" fill="#000">PK</text>
<text x="868" y="320" fill="#000">String</text><text x="936" y="320" fill="#000">categoryId</text>
<text x="1082" y="320" text-anchor="end" fill="#000">FK</text>
<text x="868" y="340" fill="#000">String</text><text x="936" y="340" fill="#000">description</text>
<text x="868" y="360" fill="#000">String</text><text x="936" y="360" fill="#000">locationLostOrFound</text>
<text x="868" y="380" fill="#000">Date</text><text x="936" y="380" fill="#000">incidentDateTime</text>
<text x="868" y="400" fill="#000">String</text><text x="936" y="400" fill="#000">status</text>
<text x="868" y="420" fill="#000">String</text><text x="936" y="420" fill="#000">reportType</text>
<text x="868" y="440" fill="#000">String</text><text x="936" y="440" fill="#000">reporterId</text>
<text x="1082" y="440" text-anchor="end" fill="#000">FK</text>
<text x="868" y="460" fill="#000">Date</text><text x="936" y="460" fill="#000">createdAt</text>
<text x="868" y="480" fill="#000">Date</text><text x="936" y="480" fill="#000">updatedAt</text>
<line x1="860" y1="306" x2="1090" y2="306" stroke="#000" stroke-width="1"/>
<line x1="860" y1="326" x2="1090" y2="326" stroke="#000" stroke-width="1"/>
<line x1="860" y1="346" x2="1090" y2="346" stroke="#000" stroke-width="1"/>
<line x1="860" y1="366" x2="1090" y2="366" stroke="#000" stroke-width="1"/>
<line x1="860" y1="386" x2="1090" y2="386" stroke="#000" stroke-width="1"/>
<line x1="860" y1="406" x2="1090" y2="406" stroke="#000" stroke-width="1"/>
<line x1="860" y1="426" x2="1090" y2="426" stroke="#000" stroke-width="1"/>
<line x1="860" y1="446" x2="1090" y2="446" stroke="#000" stroke-width="1"/>
<line x1="860" y1="466" x2="1090" y2="466" stroke="#000" stroke-width="1"/>
<line x1="930" y1="286" x2="930" y2="486" stroke="#000" stroke-width="1"/>
<line x1="1050" y1="286" x2="1050" y2="486" stroke="#000" stroke-width="1"/>
</g>
<g id="entity_CLAIM"><rect x="1000" y="620" width="230" height="186" fill="#fff" stroke="#000" stroke-width="1.5"/>
<line x1="1000" y1="646" x2="1230" y2="646" stroke="#000" stroke-width="1.5"/>
<text x="1115.0" y="637" text-anchor="middle" font-weight="bold" fill="#000">CLAIM</text>
<text x="1008" y="660" fill="#000">String</text><text x="1076" y="660" fill="#000">claimId</text>
<text x="1222" y="660" text-anchor="end" fill="#000">PK</text>
<text x="1008" y="680" fill="#000">String</text><text x="1076" y="680" fill="#000">itemId</text>
<text x="1222" y="680" text-anchor="end" fill="#000">FK</text>
<text x="1008" y="700" fill="#000">String</text><text x="1076" y="700" fill="#000">claimantId</text>
<text x="1222" y="700" text-anchor="end" fill="#000">FK</text>
<text x="1008" y="720" fill="#000">String</text><text x="1076" y="720" fill="#000">status</text>
<text x="1008" y="740" fill="#000">Date</text><text x="1076" y="740" fill="#000">submittedAt</text>
<text x="1008" y="760" fill="#000">Date</text><text x="1076" y="760" fill="#000">decidedAt</text>
<text x="1008" y="780" fill="#000">String</text><text x="1076" y="780" fill="#000">decidedBy</text>
<text x="1222" y="780" text-anchor="end" fill="#000">FK</text>
<text x="1008" y="800" fill="#000">String</text><text x="1076" y="800" fill="#000">decisionReason</text>
<line x1="1000" y1="666" x2="1230" y2="666" stroke="#000" stroke-width="1"/>
<line x1="1000" y1="686" x2="1230" y2="686" stroke="#000" stroke-width="1"/>
<line x1="1000" y1="706" x2="1230" y2="706" stroke="#000" stroke-width="1"/>
<line x1="1000" y1="726" x2="1230" y2="726" stroke="#000" stroke-width="1"/>
<line x1="1000" y1="746" x2="1230" y2="746" stroke="#000" stroke-width="1"/>
<line x1="1000" y1="766" x2="1230" y2="766" stroke="#000" stroke-width="1"/>
<line x1="1000" y1="786" x2="1230" y2="786" stroke="#000" stroke-width="1"/>
<line x1="1070" y1="646" x2="1070" y2="806" stroke="#000" stroke-width="1"/>
<line x1="1190" y1="646" x2="1190" y2="806" stroke="#000" stroke-width="1"/>
</g>
<g id="entity_CHAIN_OF_CUSTODY_ENTRY"><rect x="40" y="700" width="230" height="226" fill="#fff" stroke="#000" stroke-width="1.5"/>
<line x1="40" y1="726" x2="270" y2="726" stroke="#000" stroke-width="1.5"/>
<text x="155.0" y="717" text-anchor="middle" font-weight="bold" fill="#000">CHAIN_OF_CUSTODY_ENTRY</text>
<text x="48" y="740" fill="#000">String</text><text x="116" y="740" fill="#000">entryId</text>
<text x="262" y="740" text-anchor="end" fill="#000">PK</text>
<text x="48" y="760" fill="#000">String</text><text x="116" y="760" fill="#000">itemId</text>
<text x="262" y="760" text-anchor="end" fill="#000">FK</text>
<text x="48" y="780" fill="#000">String</text><text x="116" y="780" fill="#000">category</text>
<text x="48" y="800" fill="#000">String</text><text x="116" y="800" fill="#000">previousStatus</text>
<text x="48" y="820" fill="#000">String</text><text x="116" y="820" fill="#000">newStatus</text>
<text x="48" y="840" fill="#000">String</text><text x="116" y="840" fill="#000">actorId</text>
<text x="262" y="840" text-anchor="end" fill="#000">FK</text>
<text x="48" y="860" fill="#000">String</text><text x="116" y="860" fill="#000">actorRole</text>
<text x="48" y="880" fill="#000">Date</text><text x="116" y="880" fill="#000">timestamp</text>
<text x="48" y="900" fill="#000">String</text><text x="116" y="900" fill="#000">reason</text>
<text x="48" y="920" fill="#000">String</text><text x="116" y="920" fill="#000">relatedClaimId</text>
<text x="262" y="920" text-anchor="end" fill="#000">FK</text>
<line x1="40" y1="746" x2="270" y2="746" stroke="#000" stroke-width="1"/>
<line x1="40" y1="766" x2="270" y2="766" stroke="#000" stroke-width="1"/>
<line x1="40" y1="786" x2="270" y2="786" stroke="#000" stroke-width="1"/>
<line x1="40" y1="806" x2="270" y2="806" stroke="#000" stroke-width="1"/>
<line x1="40" y1="826" x2="270" y2="826" stroke="#000" stroke-width="1"/>
<line x1="40" y1="846" x2="270" y2="846" stroke="#000" stroke-width="1"/>
<line x1="40" y1="866" x2="270" y2="866" stroke="#000" stroke-width="1"/>
<line x1="40" y1="886" x2="270" y2="886" stroke="#000" stroke-width="1"/>
<line x1="40" y1="906" x2="270" y2="906" stroke="#000" stroke-width="1"/>
<line x1="110" y1="726" x2="110" y2="926" stroke="#000" stroke-width="1"/>
<line x1="230" y1="726" x2="230" y2="926" stroke="#000" stroke-width="1"/>
</g>
<g id="entity_EVIDENCE"><rect x="520" y="760" width="230" height="186" fill="#fff" stroke="#000" stroke-width="1.5"/>
<line x1="520" y1="786" x2="750" y2="786" stroke="#000" stroke-width="1.5"/>
<text x="635.0" y="777" text-anchor="middle" font-weight="bold" fill="#000">EVIDENCE</text>
<text x="528" y="800" fill="#000">String</text><text x="596" y="800" fill="#000">evidenceId</text>
<text x="742" y="800" text-anchor="end" fill="#000">PK</text>
<text x="528" y="820" fill="#000">String</text><text x="596" y="820" fill="#000">claimId</text>
<text x="742" y="820" text-anchor="end" fill="#000">FK</text>
<text x="528" y="840" fill="#000">String</text><text x="596" y="840" fill="#000">itemId</text>
<text x="742" y="840" text-anchor="end" fill="#000">FK</text>
<text x="528" y="860" fill="#000">String</text><text x="596" y="860" fill="#000">blobReference</text>
<text x="528" y="880" fill="#000">String</text><text x="596" y="880" fill="#000">evidenceType</text>
<text x="528" y="900" fill="#000">String</text><text x="596" y="900" fill="#000">uploadedBy</text>
<text x="742" y="900" text-anchor="end" fill="#000">FK</text>
<text x="528" y="920" fill="#000">Date</text><text x="596" y="920" fill="#000">uploadedAt</text>
<text x="528" y="940" fill="#000">String</text><text x="596" y="940" fill="#000">encryptionKeyId</text>
<line x1="520" y1="806" x2="750" y2="806" stroke="#000" stroke-width="1"/>
<line x1="520" y1="826" x2="750" y2="826" stroke="#000" stroke-width="1"/>
<line x1="520" y1="846" x2="750" y2="846" stroke="#000" stroke-width="1"/>
<line x1="520" y1="866" x2="750" y2="866" stroke="#000" stroke-width="1"/>
<line x1="520" y1="886" x2="750" y2="886" stroke="#000" stroke-width="1"/>
<line x1="520" y1="906" x2="750" y2="906" stroke="#000" stroke-width="1"/>
<line x1="520" y1="926" x2="750" y2="926" stroke="#000" stroke-width="1"/>
<line x1="590" y1="786" x2="590" y2="946" stroke="#000" stroke-width="1"/>
<line x1="710" y1="786" x2="710" y2="946" stroke="#000" stroke-width="1"/>
</g>
<g id="entity_HANDOVER_RECORD"><rect x="1060" y="900" width="230" height="206" fill="#fff" stroke="#000" stroke-width="1.5"/>
<line x1="1060" y1="926" x2="1290" y2="926" stroke="#000" stroke-width="1.5"/>
<text x="1175.0" y="917" text-anchor="middle" font-weight="bold" fill="#000">HANDOVER_RECORD</text>
<text x="1068" y="940" fill="#000">String</text><text x="1136" y="940" fill="#000">handoverId</text>
<text x="1282" y="940" text-anchor="end" fill="#000">PK</text>
<text x="1068" y="960" fill="#000">String</text><text x="1136" y="960" fill="#000">claimId</text>
<text x="1282" y="960" text-anchor="end" fill="#000">FK</text>
<text x="1068" y="980" fill="#000">String</text><text x="1136" y="980" fill="#000">itemId</text>
<text x="1282" y="980" text-anchor="end" fill="#000">FK</text>
<text x="1068" y="1000" fill="#000">Date</text><text x="1136" y="1000" fill="#000">pickupTime</text>
<text x="1068" y="1020" fill="#000">String</text><text x="1136" y="1020" fill="#000">pickupLocation</text>
<text x="1068" y="1040" fill="#000">String</text><text x="1136" y="1040" fill="#000">verificationNotes</text>
<text x="1068" y="1060" fill="#000">String</text><text x="1136" y="1060" fill="#000">createdBy</text>
<text x="1282" y="1060" text-anchor="end" fill="#000">FK</text>
<text x="1068" y="1080" fill="#000">Date</text><text x="1136" y="1080" fill="#000">createdAt</text>
<text x="1068" y="1100" fill="#000">Date</text><text x="1136" y="1100" fill="#000">completedAt</text>
<line x1="1060" y1="946" x2="1290" y2="946" stroke="#000" stroke-width="1"/>
<line x1="1060" y1="966" x2="1290" y2="966" stroke="#000" stroke-width="1"/>
<line x1="1060" y1="986" x2="1290" y2="986" stroke="#000" stroke-width="1"/>
<line x1="1060" y1="1006" x2="1290" y2="1006" stroke="#000" stroke-width="1"/>
<line x1="1060" y1="1026" x2="1290" y2="1026" stroke="#000" stroke-width="1"/>
<line x1="1060" y1="1046" x2="1290" y2="1046" stroke="#000" stroke-width="1"/>
<line x1="1060" y1="1066" x2="1290" y2="1066" stroke="#000" stroke-width="1"/>
<line x1="1060" y1="1086" x2="1290" y2="1086" stroke="#000" stroke-width="1"/>
<line x1="1130" y1="926" x2="1130" y2="1106" stroke="#000" stroke-width="1"/>
<line x1="1250" y1="926" x2="1250" y2="1106" stroke="#000" stroke-width="1"/>
</g>
</svg>